<svg xmlns="http://www.w3.org/2000/svg" width="96" height="104"><path d="M94.391 80.047c2.131-8.86-4.965-10.249-4.965-10.249 7.6-9.489 5.837-18.528-2.498-23.044 2.663-9.168 3.909-16.295-8.683-19.988.702-3.923.643-8.652-.69-12.562-1.376-4.07-5.321-6.688-8.879-9.046-9.996 11.215-6.436 21.253-6.436 21.253-1.926-.45-4.574-.409-6.104 1.01-3.176 2.765-3.025 12.742 1.247 17.68-1.627.247-3.803.277-5.329 1.152-2.542 1.324-2.499 4.793-1.239 9.043-2.103-.238-4.36.038-6.691.866-5.031-8.114-9.494-13.809-20.663-6.922-2.445-3.147-6-6.267-9.797-7.893-3.946-1.701-8.531-.521-12.664.545 1.644 14.933 11.486 19.004 11.486 19.004-1.623 1.13-3.365 3.125-3.334 5.212-.07 4.211 7.445 10.774 13.973 10.903-.905 1.375-2.338 3.011-2.71 4.731-1.782 6.892 16.928 10.795 26.642 13.26 11.258 1.79 20.059 2.933 29.912 2.106 4.243-.505 3.238-.352 7.276-1.168.676-.424 1.779-1.84 1.933-2.047 3.193-4.298 6.702-7.563 8.213-13.846zm-67.936-6.93c-3.973-5.441-7.433-11.222-11.051-16.903-2.87-4.506-4.577-6.881-8.774-11.297 12.515 5.925 12.035 8.657 17.802 18.836l3.923-5.89c2.31 4.487 9.17 17.928 10.199 19.94.701-1.575 2.457-13.058 2.457-13.058 3.417 6.554 6.992 13.046 12.143 18.517.47-.015-.511-9.598-1.338-14.481 4.288 6.704 6.566 15.416 14.937 19.24.264-.442-.024-1.995-.395-3.667 2.418 3.411 4.845 6.539 7.513 9.502-17.422-.726-35.394-6.5-47.416-20.739zm52.198 15.145c-2.014-5.017-.711-10.927-4.794-15.368-3.956-4.065-7.225-4.297-9.13-3.892-2.413-7.601-3.37-15.689-2.223-24.032 1.386-6.593 3.366-13.033 5.167-19.523 1.428-5.148 2.05-8.006 2.525-14.08 3.971 13.265 1.62 14.736-2.086 25.833l7.002-1.026c-1.789 4.719-7.187 18.81-7.993 20.922 1.64-.533 11.348-6.911 11.348-6.911-2.584 6.925-5.016 13.925-5.636 21.414.326.339 6.791-6.802 9.866-10.684-2.113 7.672-7.063 15.195-4.303 23.974.948-.187 3.505-4.433 4.868-6.068-1.054 4.174-2.036 8.443-2.291 12.828-.967-.835-1.702-1.848-2.32-3.387z" fill="#fff"/></svg>